Coordinates
version=1
nRows=17
nColumns=36
inDegrees=yes

Units are S.I. units (second, meters, Newtons, ...)
If the header above contains a line with 'inDegrees', this indicates whether rotational values are in degrees (yes) or radians (no).

endheader
time	pelvis_tilt	pelvis_list	pelvis_rotation	pelvis_tx	pelvis_ty	pelvis_tz	hip_flexion_r	hip_adduction_r	hip_rotation_r	knee_angle_r	knee_angle_r_beta	ankle_angle_r	subtalar_angle_r	mtp_angle_r	hip_flexion_l	hip_adduction_l	hip_rotation_l	knee_angle_l	knee_angle_l_beta	ankle_angle_l	subtalar_angle_l	mtp_angle_l	lumbar_extension	lumbar_bending	lumbar_rotation	arm_flex_r	arm_add_r	arm_rot_r	elbow_flex_r	pro_sup_r	arm_flex_l	arm_add_l	arm_rot_l	elbow_flex_l	pro_sup_l
      0.00000000	     11.90914381	     -2.45103108	     -2.31103193	     -0.52095715	      0.58901160	     -0.64893547	     80.93135300	    -13.88838009	      2.16814612	    107.70215707	      1.87975725	     21.74496375	      8.40509599	     -3.90795909	     83.28893400	    -16.64657551	     15.53687885	    107.55903238	      1.87725926	     18.96008841	     26.97793027	     -3.90795909	    -34.81326792	     -0.75802540	      2.86351271	      2.05477423	     -9.16802840	     15.88840931	    126.96597445	    102.70363515	      7.29668987	    -14.72496635	     29.01624850	    125.05334011	    102.23411864
      0.01000000	     11.81314127	     -2.71644183	     -2.40418156	     -0.52086224	      0.58869776	     -0.64866221	     80.91536926	    -13.68364425	      1.88416863	    107.64483927	      1.87875687	     21.88234076	      8.58168146	     -4.26475523	     83.54540846	    -16.85915209	     15.94490238	    107.62226868	      1.87836294	     19.16566693	     27.86328604	     -4.26475523	    -34.66678273	     -0.56448436	      3.08210558	      2.06944973	     -9.21943351	     16.05457869	    127.00929745	     99.65474367	      7.22603300	    -14.67042480	     29.14456623	    125.22267092	     99.11335722
      0.02000000	     11.85909844	     -2.76572264	     -2.40272837	     -0.52087589	      0.58878153	     -0.64871079	     80.84036992	    -13.65978679	      1.83691004	    107.64921844	      1.87883330	     21.86768465	      8.51911858	     -4.82049001	     83.51031741	    -16.87450348	     15.98125253	    107.63300175	      1.87855026	     19.22189368	     27.71332449	     -4.82049001	    -34.71633400	     -0.50130361	      3.19829695	      2.01263364	     -9.26022960	     15.71770288	    126.73144623	    104.73127564	      7.34936762	    -14.63639004	     29.10409352	    124.84759302	    101.91464420
      0.03000000	     11.99788645	     -2.68375591	     -2.37902209	     -0.52106352	      0.58925867	     -0.64879825	     80.69541804	    -13.71012441	      1.92686753	    107.62734019	      1.87845145	     21.87519148	      8.55380744	     -5.41474915	     83.27498740	    -16.82870823	     15.84999024	    107.58077654	      1.87763876	     19.21589720	     27.64021682	     -5.41474915	    -34.92256138	     -0.57194264	      3.12543212	      2.10143031	     -9.28933909	     15.78302493	    126.72928582	    104.88434319	      7.44549237	    -14.68470798	     29.17041260	    124.85613760	    101.94599665
      0.04000000	     12.05819641	     -2.76563820	     -2.43336921	     -0.52121891	      0.58945751	     -0.64867253	     80.58883276	    -13.58973463	      1.85897047	    107.58378019	      1.87769119	     21.86361649	      8.50017906	     -5.58467389	     83.23401609	    -16.93143112	     15.93497951	    107.57820655	      1.87759391	     19.27709148	     27.79962204	     -5.58467389	    -35.02725313	     -0.52238566	      3.17360673	      2.22569417	     -9.35661086	     15.97121386	    126.83003158	    103.30408608	      7.48634722	    -14.73919888	     29.32360353	    125.00179575	    100.65138323
      0.05000000	     11.97347394	     -2.79793999	     -2.46539182	     -0.52136983	      0.58929634	     -0.64846009	     80.69064311	    -13.48929091	      1.84282309	    107.56998533	      1.87745042	     21.71285249	      8.28938012	     -5.65874975	     83.37394188	    -16.97393022	     15.97081225	    107.54966914	      1.87709584	     18.91223570	     27.61990461	     -5.65874975	    -35.03032841	     -0.52087404	      3.18811778	      2.28777356	     -9.36848754	     16.00390203	    127.07555119	    102.52776879	      7.51850747	    -14.80866637	     29.37735900	    125.25202779	    100.01940381
      0.06000000	     11.96431378	     -3.21913129	     -2.53786391	     -0.52164944	      0.58947174	     -0.64823287	     80.46281247	    -13.18772879	      1.39403101	    107.42007389	      1.87483397	     21.78457818	      8.27143729	     -5.90242422	     83.56868828	    -17.16749714	     16.49859867	    107.58833814	      1.87777074	     19.14670655	     27.85279982	     -5.90242422	    -35.09097285	     -0.15091959	      3.67416525	      2.31899440	     -9.52884192	     15.72543880	    127.02765920	    104.83197669	      7.87831807	    -14.72026806	     29.54200039	    124.74460267	    102.55224459
      0.07000000	     12.13712566	     -3.42831693	     -2.48989084	     -0.52218940	      0.59027329	     -0.64831945	     80.09195196	    -13.10492502	      1.15597428	    107.28573215	      1.87248927	     21.85285317	      8.17630983	     -6.25894247	     83.40999417	    -17.15829467	     16.74668891	    107.52299632	      1.87663031	     19.33551863	     28.10269933	     -6.25894247	    -35.45357643	      0.08355057	      3.65068955	      2.66536050	     -9.69208402	     16.25104920	    127.48803637	     98.81062118	      8.00521261	    -14.74837757	     29.76824484	    125.50136588	     96.98657622
      0.08000000	     12.48341791	     -3.17697937	     -2.36501721	     -0.52297465	      0.59180376	     -0.64874056	     79.69604970	    -13.30311620	      1.42129907	    107.17123670	      1.87049094	     21.97375529	      8.37963858	     -6.21528986	     82.80769223	    -16.91450337	     16.33893232	    107.33550455	      1.87335796	     18.94553370	     27.60695362	     -6.21528986	    -36.09106864	     -0.11087196	      3.45481412	      2.97353542	     -9.72934473	     15.99163551	    127.10258210	    105.01387575	      8.44561408	    -14.86270877	     29.55626822	    124.92354519	    103.07360375
      0.09000000	     12.89698299	     -2.86940742	     -2.24532231	     -0.52385875	      0.59363743	     -0.64913286	     79.21820137	    -13.51283370	      1.74622137	    107.05684486	      1.86849443	     22.23464117	      8.62789036	     -6.34382917	     82.05729697	    -16.68693521	     15.85098164	    107.11161470	      1.86945034	     18.97039442	     27.52906646	     -6.34382917	    -36.86802755	     -0.35448837	      3.23080086	      3.26875238	     -9.74969320	     16.23303282	    127.51160999	    101.53073645	      8.97383635	    -15.07983651	     29.93609686	    125.43073328	    100.00005838
      0.10000000	     12.99309045	     -2.56334628	     -2.16004210	     -0.52464126	      0.59475672	     -0.64940320	     79.12771814	    -13.65795243	      2.05381480	    106.92324593	      1.86616269	     22.10407402	      8.37339254	     -6.66328789	     81.70705423	    -16.38230294	     15.43998207	    106.90472912	      1.86583951	     18.64404071	     26.96574051	     -6.66328789	    -37.25476699	     -0.61442909	      3.04296668	      3.59644830	     -9.77496125	     16.11933698	    127.29123889	    104.85380655	      9.42134427	    -15.19801082	     29.99919360	    125.20897349	    102.91096276
      0.11000000	     13.01321975	     -2.37137845	     -2.09320054	     -0.52536343	      0.59552972	     -0.64955474	     79.09066872	    -13.72928727	      2.25790995	    106.81191635	      1.86421962	     22.18447712	      8.35030008	     -6.87356448	     81.53963117	    -16.15652848	     15.17864737	    106.77297376	      1.86353994	     18.49357819	     26.71185686	     -6.87356448	    -37.58033769	     -0.76134547	      2.92294431	      3.89958093	     -9.88502918	     16.16598079	    127.50080047	    104.66704408	      9.92620775	    -15.44858704	     30.29046010	    125.40621157	    102.40053739
      0.12000000	     13.00055305	     -2.19158001	     -2.02959615	     -0.52609514	      0.59625682	     -0.64967944	     79.08116362	    -13.78240064	      2.43371597	    106.69464520	      1.86217285	     22.33609303	      8.20947584	     -7.03126178	     81.42226889	    -15.94839535	     14.91108141	    106.63775394	      1.86117991	     18.29437706	     26.31623253	     -7.03126178	    -37.90360898	     -0.88587285	      2.79316186	      4.25485582	    -10.02033121	     16.22787623	    127.71311710	    104.86250468	     10.45657506	    -15.69518637	     30.55396571	    125.59064399	    102.46634894
      0.13000000	     12.98990321	     -2.10708154	     -1.99277473	     -0.52683097	      0.59699835	     -0.64982476	     79.02126248	    -13.77486867	      2.53191527	    106.54407331	      1.85954488	     22.40986173	      8.14854678	     -7.14097106	     81.34773711	    -15.81559500	     14.71323127	    106.53631072	      1.85940940	     18.08679608	     25.84432323	     -7.14097106	    -38.25435290	     -0.94196028	      2.75187493	      4.64416145	    -10.21284359	     16.33438083	    127.93557510	    104.67807278	     11.05429645	    -15.92764621	     30.80704896	    125.74011806	    102.40475167
      0.14000000	     12.80121860	     -1.97588253	     -1.92034325	     -0.52741610	      0.59727065	     -0.65010363	     79.20488298	    -13.82477271	      2.69002581	    106.43542250	      1.85764856	     22.46690655	      8.14241007	     -7.22904916	     81.48588472	    -15.60548247	     14.46624624	    106.46522100	      1.85816865	     17.84146146	     25.21636371	     -7.22904916	    -38.40621909	     -1.00825334	      2.67002406	      5.01215703	    -10.37599345	     16.37709131	    128.18523384	    104.62238502	     11.67328312	    -16.18748579	     31.11365859	    125.88355530	    102.43301936
      0.15000000	     12.43280100	     -1.83041280	     -1.82020107	     -0.52769756	      0.59704113	     -0.65047186	     79.62742122	    -13.91626717	      2.86677809	    106.37984168	      1.85667850	     22.44075185	      8.01504985	     -7.23953079	     81.87046572	    -15.37260802	     14.21564602	    106.45298442	      1.85795508	     17.51914703	     24.65321041	     -7.23953079	    -38.34820424	     -1.04822737	      2.48837111	      5.39906122	    -10.53282934	     16.61262925	    128.47351790	    103.62389913	     12.19139935	    -16.47707425	     31.42508175	    126.17608733	    101.60153417
      0.16000000	     11.99692907	     -1.74968249	     -1.76920016	     -0.52784390	      0.59663164	     -0.65067378	     80.10218523	    -13.89659811	      3.02222022	    106.31670543	      1.85557656	     22.42756844	      7.94042509	     -7.26088644	     82.36408371	    -15.25754186	     14.03322410	    106.47869780	      1.85840386	     17.38978147	     24.18168301	     -7.26088644	    -38.21198184	     -1.05003228	      2.38350550	      5.81867576	    -10.76865859	     16.85263188	    128.81428769	    102.13162404	     12.77953576	    -16.81518190	     31.76231184	    126.49392746	    100.28383553
